<svg xmlns="http://www.w3.org/2000/svg" width="163" height="235" viewBox="0 0 163 235"><g fill="#FFF" transform="translate(.36)"><path d="M8.78,-2.84217094e-14 L-1.42108547e-14,25.46 L5.76,25.46 L7.64,19.66 L16.84,19.66 L18.73,25.46 L24.49,25.46 L15.72,-2.84217094e-14 L8.78,-2.84217094e-14 Z M9.02,15.46 L12.15,5.83 L12.35,5.83 L15.48,15.46 L9.02,15.46 Z M42.26,25.46 L51.03,-2.84217094e-14 L45.03,-2.84217094e-14 L38.86,19.35 L38.64,19.35 L32.48,-2.84217094e-14 L26.48,-2.84217094e-14 L35.32,25.46 L42.26,25.46 Z M74.8,21.02 L62.98,21.02 L62.98,14.94 L73.87,14.94 L73.87,10.51 L62.98,10.51 L62.98,4.46 L74.75,4.46 L74.75,0.02 L57.64,0.02 L57.64,25.46 L74.84,25.46 L74.8,21.02 Z M103.8,25.46 L103.8,-2.84217094e-14 L98.44,-2.84217094e-14 L98.44,16 L98.22,16 L87.22,-2.84217094e-14 L82.5,-2.84217094e-14 L82.5,25.46 L87.88,25.46 L87.88,9.46 L88.06,9.46 L99.14,25.46 L103.8,25.46 Z M111.47,25.46 L130.96,25.46 L130.96,21.02 L118.24,21.02 L130.95,3.2 L130.95,0 L111.46,0 L111.46,4.46 L124.19,4.46 L111.49,22.29 L111.47,25.46 Z M152.93,-2.84217094e-14 L146,-2.84217094e-14 L137.23,25.46 L143,25.46 L144.89,19.66 L154.07,19.66 L155.96,25.46 L161.73,25.46 L152.93,-2.84217094e-14 Z M146.25,15.46 L149.38,5.83 L149.58,5.83 L152.71,15.46 L146.25,15.46 Z M41.64,63.13 L41.34,63.13 L32.69,42 L29.04,42 L29.04,67.46 L31.92,67.46 L31.92,48.12 L32.17,48.12 L40.17,67.46 L42.95,67.46 L50.95,48.12 L51.19,48.12 L51.19,67.46 L54.08,67.46 L54.08,42 L50.4,42 L41.64,63.13 Z M70.81,42 L61.49,67.46 L64.72,67.46 L67.28,60.25 L77.57,60.25 L80.13,67.46 L83.37,67.46 L74.02,42 L70.81,42 Z M68.22,57.52 L72.3,46.03 L72.5,46.03 L76.64,57.52 L68.22,57.52 Z M99.4,42 L90.8,42 L90.8,67.46 L93.88,67.46 L93.88,58.16 L99.45,58.16 C105.38,58.16 108.05,54.56 108.05,50.06 C108.05,45.56 105.41,42 99.43,42 L99.4,42 Z M99.4,55.43 L93.93,55.43 L93.93,44.74 L99.35,44.74 C103.49,44.74 105.07,47 105.07,50.06 C105.07,53.12 103.47,55.46 99.38,55.46 L99.4,55.43 Z M126.64,53.54 L124.05,52.84 C122.17,52.35 119.13,51.35 119.13,48.62 C119.13,46.18 121.37,44.39 124.75,44.39 C127.83,44.39 130.17,45.86 130.47,48.39 L133.47,48.39 C133.33,44.55 129.79,41.68 124.87,41.68 C119.95,41.68 116.17,44.51 116.17,48.79 C116.17,52.22 118.66,54.26 122.63,55.4 L125.77,56.29 C128.45,57.04 130.84,57.98 130.84,60.52 C130.84,63.3 128.15,65.14 124.62,65.14 C121.62,65.14 118.9,63.8 118.62,60.92 L115.43,60.92 C115.73,65.09 119.11,67.92 124.58,67.92 C130.45,67.92 133.780066,64.69 133.780066,60.56 C133.8,55.78 129.27,54.24 126.64,53.54 Z" transform="translate(0 166.54)"/><g transform="translate(29.87)"><path d="M52.0800247,56.0800247 C51.2300247,57.1500247 50.3100247,58.2300247 49.5400247,59.3100247 C46.9767679,62.5069142 44.7106983,65.9311227 42.7700247,69.5400247 C42.3120689,70.3941868 41.9498723,71.2963247 41.6900247,72.2300247 C41.5483251,72.6251547 41.4706795,73.0403903 41.4600247,73.4600247 C41.426684,73.8015645 41.4817838,74.145938 41.6200247,74.4600247 C41.9323016,75.1742234 42.404438,75.8071598 43.0000247,76.3100247 C43.724233,76.9334186 44.4966447,77.4985163 45.3100247,78.0000247 C47.0515335,79.0659516 48.8472913,80.0406008 50.6900247,80.9200247 C52.5400247,81.8500247 54.4600247,82.8500247 56.3900247,84.0000247 C57.3713417,84.6160773 58.3193365,85.2836793 59.2300247,86.0000247 C60.2713889,86.8174132 61.1355798,87.8381112 61.7700247,89.0000247 C62.1547144,89.6641755 62.4156129,90.3926581 62.5400247,91.1500247 C62.6751914,91.9393528 62.7021059,92.7434248 62.6200247,93.5400247 C62.3630074,95.0214693 61.7562043,96.420202 60.8500247,97.6200247 C60.0747737,98.6072559 59.1964766,99.5090189 58.2300247,100.310025 C57.3996812,101.048602 56.5282941,101.739702 55.6200247,102.380025 C53.8500247,103.690025 52.1600247,104.850025 50.5400247,106.080025 C47.2955048,108.374451 44.2573219,110.947538 41.4600247,113.770025 C40.1732728,115.053871 38.9676122,116.416501 37.8500247,117.850025 C42.6635592,124.917498 47.0545702,132.263676 51.0000247,139.850025 C65.3900247,112.000025 81.6200247,96.0000247 91.7700247,80.4600247 L52.0800247,56.0800247 Z"/><path d="M52.0000247,97.3800247 C53.5940325,96.525267 55.0698022,95.4663434 56.3900247,94.2300247 C56.8330661,93.8439672 57.1529703,93.3362932 57.3100247,92.7700247 C57.4685903,92.2907048 57.440012,91.76915 57.2300247,91.3100247 C56.3863064,89.8225498 55.2001993,88.5575975 53.7700247,87.6200247 C52.2300247,86.4600247 50.4600247,85.3800247 48.6900247,84.3100247 C46.9200247,83.2400247 45.0800247,82.1500247 43.3100247,80.8500247 C42.3695646,80.1893703 41.4924678,79.4428337 40.6900247,78.6200247 C39.7515782,77.7056328 39.0630244,76.5660763 38.6900247,75.3100247 C38.4888393,74.6359445 38.4376412,73.9259969 38.5400247,73.2300247 C38.6125964,72.6219349 38.7673412,72.0265036 39.0000247,71.4600247 C39.387329,70.4039414 39.85192,69.3778303 40.3900247,68.3900247 C41.4295289,66.5071781 42.6095414,64.7054027 43.9200247,63.0000247 C45.1600247,61.3100247 46.4600247,59.6100247 47.8500247,58.0000247 C48.3900247,57.3900247 48.9200247,56.6900247 49.5400247,56.0800247 L10.0000247,80.6200247 C15.9200247,89.6200247 23.8500247,98.8500247 32.3100247,110.460025 C33.3590412,109.47366 34.4642194,108.548783 35.6200247,107.690025 C39.0797581,105.018232 42.7294034,102.601846 46.5400247,100.460025 C48.4600247,99.3800247 50.3100247,98.3800247 52.0000247,97.3800247 Z"/><path d="M50.7700247,23.8500247 C35.9070904,23.8610547 23.8610547,35.9070904 23.8500247,50.7700247 C23.866547,54.4729357 24.624803,58.1350059 26.0800247,61.5400247 L48.6900247,47.4600247 C49.9409128,46.6895907 51.5191366,46.6895907 52.7700247,47.4600247 L75.4600247,61.5400247 C76.9480812,58.1453914 77.7077614,54.4764425 77.6903283,50.7700247 C77.6789947,35.9070904 65.632959,23.8610547 50.7700247,23.8500247 Z"/><path d="M50.7700247,-1.42108547e-14 C37.3009154,-0.0132597599 24.3796473,5.33144093 14.8555441,14.8555441 C5.33144093,24.3796473 -0.0132597599,37.3009154 0,50.7700247 C0.0410352449,58.9014287 2.13219067,66.8911557 6.08002471,74.0000247 L19.5400247,65.6100247 C17.3101754,60.9806171 16.1515116,55.908472 16.1500247,50.7700247 C16.1500247,31.6499267 31.6499267,16.1500247 50.7700247,16.1500247 C69.8901227,16.1500247 85.3900247,31.6499267 85.3900247,50.7700247 C85.3933543,55.9090147 84.2344483,60.9822196 82.0000247,65.6100247 L95.4600247,74.0000247 C99.4078587,66.8911557 101.499014,58.9014287 101.540049,50.7700247 C101.553309,37.3009154 96.2086085,24.3796473 86.6845053,14.8555441 C77.1604021,5.33144093 64.239134,-0.0132597599 50.7700247,-1.42108547e-14 L50.7700247,-1.42108547e-14 Z"/></g></g></svg>